<?xml version="1.0" standalone="no"?><!DOCTYPE svg PUBLIC "-//W3C//DTD SVG 1.1//EN" "http://www.w3.org/Graphics/SVG/1.1/DTD/svg11.dtd"><svg t="1489898850137" class="icon" style="" viewBox="0 0 1024 1024" version="1.1" xmlns="http://www.w3.org/2000/svg" p-id="8484" xmlns:xlink="http://www.w3.org/1999/xlink" width="200" height="200"><defs><style type="text/css"></style></defs><path d="M170.780444 1006.364444a85.105778 85.105778 0 0 1-85.447111-85.333333c0-3.925333 0.568889-7.736889 1.592889-11.491555l42.666667-153.031112a42.666667 42.666667 0 0 1 82.147555 22.983112l-38.855111 139.491555a11.207111 11.207111 0 0 1 1.080889-0.967111l225.848889-183.182222a42.666667 42.666667 0 0 1 26.851556-9.500445h42.666666a42.666667 42.666667 0 1 1 0 85.333334h-27.534222l-212.650667 172.487111a85.219556 85.219556 0 0 1-58.368 23.210666z" p-id="8485"></path><path d="M597.333333 810.666667h-170.666666a42.666667 42.666667 0 1 1 0-85.333334h170.666666c188.188444 0 341.333333-143.530667 341.333334-320S785.521778 85.333333 597.333333 85.333333h-170.666666c-188.188444 0-341.333333 143.530667-341.333334 320 0 59.733333 17.635556 117.987556 51.086223 168.391111a42.666667 42.666667 0 1 1-71.168 47.160889A389.688889 389.688889 0 0 1 0 405.333333C0 181.816889 191.431111 0 426.666667 0h170.666666C832.625778 0 1024 181.816889 1024 405.333333c0 223.459556-191.374222 405.333333-426.666667 405.333334z" p-id="8486"></path><path d="M554.666667 426.666667a42.666667 42.666667 0 1 1-85.333334 0 42.666667 42.666667 0 0 1 85.333334 0zM768 426.666667a42.666667 42.666667 0 1 1-85.333333 0 42.666667 42.666667 0 0 1 85.333333 0zM341.333333 426.666667a42.666667 42.666667 0 1 1-85.333333 0 42.666667 42.666667 0 0 1 85.333333 0z" p-id="8487"></path></svg>