<?xml version="1.0" standalone="no"?><!DOCTYPE svg PUBLIC "-//W3C//DTD SVG 1.1//EN" "http://www.w3.org/Graphics/SVG/1.1/DTD/svg11.dtd"><svg t="1490192779919" class="icon" style="" viewBox="0 0 1024 1024" version="1.1" xmlns="http://www.w3.org/2000/svg" p-id="2352" xmlns:xlink="http://www.w3.org/1999/xlink" width="200" height="200"><defs><style type="text/css"></style></defs><path d="M607.84 895.957H214.694a86.825 86.825 0 0 1-86.814-86.886V214.785a86.84 86.84 0 0 1 86.814-86.905H808.98a86.337 86.337 0 0 1 61.437 25.457c16.4 16.4 25.363 38.209 25.374 61.412l-1.351 393.073v0.105a32.031 32.031 0 0 0 64.06 0.1l1.325-393.137v-0.105A150.776 150.776 0 0 0 808.98 63.94H214.694A150.639 150.639 0 0 0 63.94 214.785V809.07a150.639 150.639 0 0 0 150.758 150.826H607.84a31.97 31.97 0 0 0 0-63.94z" p-id="2353"></path><path d="M950.545 905.331L828.473 783.26a192.218 192.218 0 1 0-45.213 45.213L905.33 950.545a31.97 31.97 0 0 0 45.214-45.214zM671.997 800.03a128.028 128.028 0 1 1 90.531-37.497A127.194 127.194 0 0 1 672 800.029z m96.008-447.816c17.654 0 31.966-14.403 31.97-32.057s-14.31-32.075-31.967-32.078l-512.005-0.167a32.02 32.02 0 0 0-31.97 32.025c0 17.657 14.308 32.093 31.966 32.093l512.006 0.184zM448 544.033a31.963 31.963 0 1 0 0-63.94H256a31.938 31.938 0 1 0 0 63.879l192 0.061z m-191.983 127.88a31.96 31.96 0 1 0 0 63.923l128 0.018a31.941 31.941 0 1 0 0-63.879z" p-id="2354"></path></svg>